# xmcd
#
# Track frame offsets:
#	150
#	16892
#	26174
#	42389
#	52415
#	65793
#	81928
#	92796
#	109106
#	120493
#
# Disc length: 1794 seconds
#
# Revision: 0
# Processed by: cddbd v1.5.2PL0 Copyright (c) Steve Scherf et al.
# Submitted via: EasyCDDAExtractor 10.2.0.1
#
DISCID=8b07000a
DTITLE=Harlan Burton - Strength In Time Of Trouble
DYEAR=1900
DGENRE=Gospel
TTITLE0=Strength In Time Of Trouble
TTITLE1=You Need The Power
TTITLE2=Let Me Sing Amazing Grace
TTITLE3=I'm Still Dancing
TTITLE4=Mama's Song
TTITLE5=Son Everything Is All Right
TTITLE6=I'm Getting Richer All The Time
TTITLE7=The Only Reason I Look Back
TTITLE8=The Victory Is In The Shout
TTITLE9=Prepare To Meet The Master
EXTD=
EXTT0=
EXTT1=
EXTT2=
EXTT3=
EXTT4=
EXTT5=
EXTT6=
EXTT7=
EXTT8=
EXTT9=
PLAYORDER=
